<svg xmlns="http://www.w3.org/2000/svg" width="1363" height="381"><g fill="none" fill-rule="evenodd" transform="translate(-12 -14)"><path d="M0 0h1380v400H0z"/><rect width="16" height="16" x="1357.16869" y="377.168694" fill="#C178C9" rx="4" transform="rotate(-71 1365.168694 385.168694)"/><path stroke="#B2C9EA" stroke-width="4" d="M25.03740485 232.64814373c-.49254565-.99070898-.00783688-1.63103636 1.07833668-1.4310011l18.26042213 3.36292945c1.08809458.20038886 1.43236904 1.0765205.76064297 1.96793111L35.404673 249.46298073c-.66800282.88646968-1.60968303.8002177-2.10135842-.18874163l-8.26590973-16.62609537z"/><circle cx="167" cy="140" r="8" stroke="#F36F59" stroke-width="4"/><circle cx="1175" cy="348" r="8" stroke="#F36F59" stroke-width="4"/><circle cx="1264" cy="314" r="5" fill="#FFD15B"/><circle cx="172" cy="230" r="5" fill="#FFD15B"/><circle cx="56" cy="127" r="5" fill="#93CE5C"/><path stroke="#FFD15B" stroke-width="7" d="M406.00047094 126.05924175c.53213157-.14258467 1.2842468.06256436 1.66884937.44716684l10.58055935 10.58056011c.3895481.389548.58794096 1.14347322.44716695 1.66884897l-3.87275389 14.45331428c-.14258445.5321324-.69630559 1.0809079-1.22168242 1.22168213l-14.45331324 3.87275417c-.53213254.14258441-1.28424777-.06256462-1.66884937-.44716684l-10.58056032-10.58056037c-.38954712-.38954773-.58794095-1.14347322-.44716695-1.66884897l3.8727539-14.45331428c.14258418-.53213144.69630655-1.08090764 1.22168241-1.22168213l14.45331421-3.87275391z"/><path stroke="#F36F59" stroke-width="6" d="M1197.3166937 213.51329323l-14.58837547-.65411348-3.13365593-13.7529569-14.44318996-.83818446-3.23557604-13.99606156"/><path stroke="#C178C9" stroke-width="6" d="M140.88712024 47.0839518l-15.39434274-.30975193-2.43494637-14.66611879-15.22893077-.51107147-2.52721284-14.92410869"/><path fill="#93CE5C" d="M266 35v10h-10M1296 219v10h-10"/><path fill="#FFD15B" d="M18.74291865 37.43222803l-6.74291868-16.68930938 16.68930938-6.74291868"/></g></svg>